<svg xmlns="http://www.w3.org/2000/svg" width="44" height="44" viewBox="0 0 44 44">
    <defs>
        <linearGradient id="uffuj0whya" x1=".96" y1=".071" x2=".057" y2=".938" gradientUnits="objectBoundingBox">
            <stop offset="0" stop-color="#4aa6d7"/>
            <stop offset=".294" stop-color="#4c54d2"/>
            <stop offset=".762" stop-color="#3a45cc"/>
            <stop offset="1" stop-color="#1933c3"/>
        </linearGradient>
        <clipPath id="f6sx87558b">
            <path data-name="사각형 2914" style="fill:none" d="M0 0h29.182v17.665H0z"/>
        </clipPath>
    </defs>
    <path data-name="사각형 2919" style="fill:none" d="M0 0h44v44H0z"/>
    <g data-name="그룹 3485">
        <g data-name="그룹 3482">
            <path data-name="사각형 2917" d="M1 0h27.177a1 1 0 0 1 1 1v14.921H0V1a1 1 0 0 1 1-1z" transform="translate(7.425 13.167)" style="fill:url(#uffuj0whya)"/>
            <g data-name="그룹 3477">
                <g data-name="그룹 3476" style="clip-path:url(#f6sx87558b)" transform="translate(7.397 13.167)">
                    <path data-name="패스 4397" d="M0 158.2v.912a.928.928 0 0 0 .936.92h27.31a.928.928 0 0 0 .936-.92v-.912z" transform="translate(0 -142.366)" style="fill:#231f20"/>
                    <path data-name="사각형 2907" transform="translate(3.97 16.436)" style="fill:#423a3d" d="M0 0h18.592v.371H0z"/>
                    <path data-name="패스 4398" d="M6.155 162.777v.663l.716-.331z" transform="translate(-5.529 -146.486)" style="fill:#fff"/>
                    <path data-name="사각형 2908" transform="translate(1.661 16.291)" style="fill:#fff" d="M0 0h.263v.663H0z"/>
                    <path data-name="사각형 2909" transform="translate(2.028 16.291)" style="fill:#fff" d="M0 0h.263v.663H0z"/>
                    <path data-name="사각형 2910" transform="translate(2.724 16.291)" style="fill:#fff" d="M0 0h.674v.663H0z"/>
                    <path data-name="사각형 2911" transform="translate(7.543 16.436)" style="fill:#fff" d="M0 0h2.831v.371H0z"/>
                    <path data-name="사각형 2912" transform="translate(3.971 16.436)" style="fill:#0e499e" d="M0 0h3.573v.371H0z"/>
                    <path data-name="패스 4399" d="M231.4 164.075c0 .157-.059.244-.163.244s-.154-.085-.155-.237.068-.24.163-.24.155.087.155.234m-.255.007c0 .12.038.188.1.188s.1-.075.1-.193-.03-.188-.1-.188-.1.067-.1.193" transform="translate(-207.565 -147.444)" style="fill:#fff"/>
                    <path data-name="패스 4400" d="M234.842 165.263a.043.043 0 1 1 .086 0 .043.043 0 1 1-.086 0m0 .251a.043.043 0 1 1 .086 0 .043.043 0 1 1-.086 0" transform="translate(-210.945 -148.683)" style="fill:#fff"/>
                    <path data-name="패스 4401" d="m236.778 163.977-.082.043-.012-.048.1-.054h.054v.462h-.061z" transform="translate(-212.598 -147.514)" style="fill:#fff"/>
                    <path data-name="패스 4402" d="M240.293 163.918v.041l-.2.421h-.066l.2-.409H240v-.052z" transform="translate(-215.575 -147.513)" style="fill:#fff"/>
                    <path data-name="패스 4403" d="M247.224 164.24a.216.216 0 0 0 .1.029c.082 0 .107-.051.106-.09 0-.065-.06-.092-.121-.092h-.036v-.047h.036c.046 0 .1-.024.1-.078 0-.037-.024-.07-.082-.07a.174.174 0 0 0-.094.031l-.017-.045a.226.226 0 0 1 .123-.036c.093 0 .135.054.135.11a.115.115 0 0 1-.087.109.121.121 0 0 1 .1.119c0 .074-.059.139-.171.139a.242.242 0 0 1-.122-.031z" transform="translate(-222.051 -147.445)" style="fill:#fff"/>
                    <path data-name="패스 4404" d="M250.927 165.265a.043.043 0 1 1 .086 0 .043.043 0 1 1-.086 0m0 .251a.043.043 0 1 1 .086 0 .043.043 0 1 1-.086 0" transform="translate(-225.393 -148.685)" style="fill:#fff"/>
                    <path data-name="패스 4405" d="M252.344 164.24a.216.216 0 0 0 .1.029c.082 0 .107-.051.106-.09 0-.065-.06-.092-.121-.092h-.029v-.047h.036c.046 0 .1-.024.1-.078 0-.037-.024-.07-.082-.07a.174.174 0 0 0-.094.031l-.017-.045a.227.227 0 0 1 .123-.036c.092 0 .135.054.135.11a.115.115 0 0 1-.087.109.121.121 0 0 1 .1.119c0 .074-.059.139-.171.139a.241.241 0 0 1-.122-.031z" transform="translate(-226.65 -147.445)" style="fill:#fff"/>
                    <path data-name="패스 4406" d="M256.259 163.973h-.179l-.018.119a.243.243 0 0 1 .038 0 .2.2 0 0 1 .1.025.131.131 0 0 1 .067.119.162.162 0 0 1-.175.158.232.232 0 0 1-.117-.028l.016-.048a.213.213 0 0 0 .1.026.1.1 0 0 0 .111-.1c0-.06-.041-.1-.135-.1a.467.467 0 0 0-.065 0l.03-.222h.225z" transform="translate(-229.928 -147.515)" style="fill:#fff"/>
                    <path data-name="패스 4407" d="m243.784 164.186.2-.515h.049l-.2.515z" transform="translate(-218.977 -147.291)" style="fill:#fff"/>
                    <path data-name="패스 4408" d="M273.885 163.447v-.093h.1v-.076h-.185v.169z" transform="translate(-245.941 -146.937)" style="fill:#fff"/>
                    <path data-name="패스 4409" d="M273.885 167.522h-.085v.169h.185v-.076h-.1z" transform="translate(-245.941 -150.757)" style="fill:#fff"/>
                    <path data-name="패스 4410" d="M278.942 163.447h.082v-.169h-.185v.076h.1z" transform="translate(-250.464 -146.937)" style="fill:#fff"/>
                    <path data-name="패스 4411" d="M278.942 167.522v.093h-.1v.076h.185v-.169z" transform="translate(-250.464 -150.757)" style="fill:#fff"/>
                    <path data-name="사각형 2913" transform="translate(26.734 16.527)" style="fill:#fff" d="M0 0h.205v.249H0z"/>
                    <path data-name="패스 4412" d="m264.936 163.875-.2-.2v-.249l.2-.19z" transform="translate(-237.792 -146.902)" style="fill:#fff"/>
                    <path data-name="패스 4413" d="M267.659 163.556a.322.322 0 0 0-.3-.318v.084a.236.236 0 0 1 0 .469v.084a.322.322 0 0 0 .3-.318" transform="translate(-240.156 -146.901)" style="fill:#fff"/>
                    <path data-name="패스 4414" d="M267.363 164.98v.082a.062.062 0 0 1 0 .123v.082a.144.144 0 0 0 0-.287" transform="translate(-240.156 -148.469)" style="fill:#fff"/>
                </g>
            </g>
            <g data-name="그룹 3481">
                <g data-name="그룹 3480" style="clip-path:url(#f6sx87558b)" transform="translate(7.397 13.167)">
                    <g data-name="그룹 3484">
                        <path data-name="패스 4416" d="M132.053 62.852v3.382l3.654-1.691z" transform="translate(-118.814 -55.71)" style="fill:#fff"/>
                        <path data-name="패스 4417" d="M107.826 36.891a4.736 4.736 0 1 0 4.815 4.736 4.776 4.776 0 0 0-4.815-4.736m0 9.16a4.425 4.425 0 1 1 4.5-4.424 4.462 4.462 0 0 1-4.5 4.424" transform="translate(-93.235 -32.794)" style="fill:#fff"/>
                    </g>
                </g>
            </g>
        </g>
    </g>
</svg>
