<svg xmlns="http://www.w3.org/2000/svg" width="20" height="20" viewBox="0 0 20 20">
    <path data-name="사각형 117" style="fill:none" d="M0 0h20v20H0z"/>
    <path data-name="패스 31" d="M1.428.714a.715.715 0 0 0-.714.714v11.426a.715.715 0 0 0 .714.714h17.139a.715.715 0 0 0 .714-.714V1.428a.715.715 0 0 0-.714-.714zm17.139 13.568H1.428A1.43 1.43 0 0 1 0 12.854V1.428A1.43 1.43 0 0 1 1.428 0h17.139A1.43 1.43 0 0 1 20 1.428v11.426a1.43 1.43 0 0 1-1.433 1.428z" transform="translate(.005 2.859)" style="fill:#8d8d8d;fill-rule:evenodd"/>
    <path data-name="패스 32" d="M10.212 10.125A1.421 1.421 0 0 1 9.2 9.707L2.1 2.61a.357.357 0 0 1 .51-.51l7.1 7.1a.715.715 0 0 0 1.01 0l7.1-7.1a.357.357 0 0 1 .505.505l-7.1 7.1a1.423 1.423 0 0 1-1.01.418" transform="translate(-.21 2.644)" style="fill:#8d8d8d;fill-rule:evenodd"/>
    <path data-name="패스 33" d="M18.068 13.313a.361.361 0 0 1-.253-.1l-5-5a.357.357 0 0 1 .505-.505l5 5a.357.357 0 0 1-.253.61zm-15.71 0A.357.357 0 0 1 2.1 12.7l5-5a.357.357 0 0 1 .505.505l-5 5a.355.355 0 0 1-.248.108z" transform="translate(-.21 2.043)" style="fill:#8d8d8d;fill-rule:evenodd"/>
</svg>
