<svg xmlns="http://www.w3.org/2000/svg" width="40" height="40" viewBox="0 0 40 40">
    <circle data-name="타원 11" cx="20" cy="20" r="20" style="fill:#fff;opacity:.06"/>
    <path d="M20.28 8.276a2.561 2.561 0 0 0-1.811-1.811C16.814 6 10.347 6 10.347 6s-6.467 0-8.122.414A2.543 2.543 0 0 0 .414 8.276 27.917 27.917 0 0 0 0 13.243a27.917 27.917 0 0 0 .414 4.967 2.561 2.561 0 0 0 1.811 1.81c1.656.466 8.122.466 8.122.466s6.467 0 8.122-.414a2.561 2.561 0 0 0 1.811-1.811 28.712 28.712 0 0 0 .414-5.018 27.917 27.917 0 0 0-.414-4.967zm-12 8.071v-6.208l5.38 3.1z" transform="translate(9.653 6.757)" style="fill:#8d8d8d"/>
</svg>
