<svg xmlns="http://www.w3.org/2000/svg" width="40" height="39.805" viewBox="0 0 40 39.805">
    <path data-name="패스 4532" d="M20 80.2a19.9 19.9 0 1 1 20-19.9 19.974 19.974 0 0 1-20 19.9m0-37.867a17.966 17.966 0 1 0 18.053 17.96A18.029 18.029 0 0 0 20 42.329" transform="translate(0 -40.391)" style="fill:#fff"/>
    <path data-name="패스 4533" d="M24.57 61.305V58.12a4.571 4.571 0 0 0-9.141 0v3.185H10.3v11.024h19.4V61.305zM16.8 58.12a3.2 3.2 0 0 1 6.4 0v3.185h-6.4z" transform="translate(0 -40.455)" style="fill:#fff"/>
    <path data-name="패스 4534" d="M20 53.59a2.614 2.614 0 1 0-2.627-2.614A2.624 2.624 0 0 0 20 53.59" transform="translate(0 -40.43)" style="fill:#fff"/>
</svg>
