<svg xmlns="http://www.w3.org/2000/svg" width="40" height="40" viewBox="0 0 40 40">
    <path data-name="패스 4524" d="M20 40a20 20 0 1 1 20-20 20.023 20.023 0 0 1-20 20m0-38.053A18.054 18.054 0 1 0 38.053 20 18.073 18.073 0 0 0 20 1.947" style="fill:#fff"/>
    <path data-name="패스 4525" d="M29.468 22.092H10.531V8.44h18.937zM11.9 20.723h16.2V9.809H11.9z" style="fill:#fff"/>
    <path data-name="사각형 243" transform="translate(9.391 8.44)" style="fill:#fff" d="M0 0h21.218v1.369H0z"/>
    <path data-name="사각형 244" transform="translate(9.391 20.723)" style="fill:#fff" d="M0 0h21.218v1.369H0z"/>
    <path data-name="패스 4526" d="M29 26.363V25.5a1.644 1.644 0 0 0-1.644-1.643h-4.01A1.644 1.644 0 0 0 21.7 25.5v.866h.3a2.787 2.787 0 0 1 2.784 2.784v2.4h1.124v-2.4a2.787 2.787 0 0 1 2.792-2.787z" style="fill:#fff"/>
    <path data-name="패스 4527" d="M18.3 26.363V25.5a1.644 1.644 0 0 0-1.644-1.643h-4.014A1.644 1.644 0 0 0 11 25.5v.866h.3a2.787 2.787 0 0 1 2.784 2.784v2.4h1.126v-2.4a2.787 2.787 0 0 1 2.784-2.784z" style="fill:#fff"/>
    <path data-name="패스 4528" d="M22.006 27.5h-4.012a1.644 1.644 0 0 0-1.644 1.644V35.2h7.3v-6.05a1.644 1.644 0 0 0-1.644-1.65" style="fill:#fff"/>
    <path data-name="패스 4529" d="M11.3 27.5H7.29a1.644 1.644 0 0 0-1.644 1.644v2.343A3.707 3.707 0 0 0 9.353 35.2h3.593v-6.05A1.644 1.644 0 0 0 11.3 27.5" style="fill:#fff"/>
    <path data-name="패스 4530" d="M32.71 27.5H28.7a1.644 1.644 0 0 0-1.644 1.644V35.2h3.593a3.707 3.707 0 0 0 3.707-3.707v-2.345A1.644 1.644 0 0 0 32.71 27.5" style="fill:#fff"/>
    <path data-name="패스 4531" d="m22.069 15.3-3.435-1.983v3.966z" style="fill:none;stroke:#fff;stroke-miterlimit:10"/>
</svg>
