<svg xmlns="http://www.w3.org/2000/svg" width="40" height="40" viewBox="0 0 40 40">
    <path data-name="패스 4518" d="M20 61.447a20 20 0 1 1 20-20 20.023 20.023 0 0 1-20 20m0-38.053a18.054 18.054 0 1 0 18.053 18.053A18.074 18.074 0 0 0 20 23.394" transform="translate(0 -21.447)" style="fill:#fff"/>
    <path data-name="패스 4519" d="M28.4 40.3v-1.51a3.111 3.111 0 0 0-6.222 0v1.51h-4.83l-.217-2.327h2.9a.444.444 0 0 0 .444-.444V33.1a.444.444 0 0 0-.444-.445h-7.3a.445.445 0 0 0-.445.445v4.433a.444.444 0 0 0 .445.444h2.595L15.1 40.3H9.5v11.082h21V40.3zm-4.85-1.51a1.742 1.742 0 0 1 3.484 0v1.51H23.55zm5.583 11.223H10.867v-8.34h18.266z" transform="translate(.135 -21)" style="fill:#fff"/>
    <path data-name="패스 4520" d="M25.292 35.811a1.9 1.9 0 1 0-1.9-1.9 1.9 1.9 0 0 0 1.9 1.9" transform="translate(.135 -21)" style="fill:#fff"/>
</svg>
