<svg xmlns="http://www.w3.org/2000/svg" width="40" height="40" viewBox="0 0 40 40">
    <path data-name="패스 4521" d="M20 61.566a20 20 0 1 1 20-20 20.023 20.023 0 0 1-20 20m0-38.053a18.053 18.053 0 1 0 18.053 18.053A18.074 18.074 0 0 0 20 23.513" transform="translate(0 -21.566)" style="fill:#fff"/>
    <path data-name="패스 4522" d="M20.012 54.688a9.856 9.856 0 0 1-6.859-2.788.28.28 0 0 1-.094-.292q.355-1.809.7-3.619a.658.658 0 0 1 .4-.507c.94-.413 1.882-.823 2.822-1.237a1.992 1.992 0 0 0 .365-.2c.316-.23.625-.47.936-.707a.467.467 0 0 0 .033-.593 3.779 3.779 0 0 1-1-1.39.288.288 0 0 0-.132-.133 1.281 1.281 0 0 1-.814-1.253v-.654a.8.8 0 0 1 .368-.711.244.244 0 0 0 .092-.171c.008-.347.008-.693 0-1.04a2.517 2.517 0 0 1 1.608-2.5 3.609 3.609 0 0 1 3.54.23 2.428 2.428 0 0 1 1.191 2.125c.011.386 0 .772 0 1.157a.221.221 0 0 0 .112.218.728.728 0 0 1 .349.633c0 .262.008.525 0 .788a1.264 1.264 0 0 1-.788 1.167.345.345 0 0 0-.157.152 3.868 3.868 0 0 1-.991 1.376.464.464 0 0 0 .023.592c.32.244.638.491.962.728a1.861 1.861 0 0 0 .337.183q1.41.62 2.823 1.236a.664.664 0 0 1 .4.519l.7 3.619a.269.269 0 0 1-.088.278 9.816 9.816 0 0 1-6.838 2.794z" transform="translate(0 -21.566)" style="fill:none;stroke:#fff;stroke-miterlimit:10"/>
    <path data-name="패스 4523" d="M23.542 43.935a5.792 5.792 0 1 0-7.519-8.794 5.6 5.6 0 0 0-1.8 4.488 5.722 5.722 0 0 0 2.236 4.3c-.04.022-.067.039-.1.052-.629.269-1.26.534-1.886.809a.176.176 0 0 1-.242-.048 7.851 7.851 0 0 1-1.723-2.908.264.264 0 0 0-.288-.222c-.651-.013-1.3-.044-1.953-.061-.122 0-.169-.046-.194-.167a10.161 10.161 0 0 1 0-4.081c.028-.137.082-.175.219-.178.668-.015 1.335-.045 2-.061a.178.178 0 0 0 .195-.152 7.692 7.692 0 0 1 1.646-2.857.192.192 0 0 0 .034-.26c-.312-.572-.61-1.151-.922-1.723a.219.219 0 0 1 .052-.33 10.162 10.162 0 0 1 3.557-2.033c.118-.039.146.028.191.1.356.571.716 1.141 1.068 1.715a.18.18 0 0 0 .228.1 7.733 7.733 0 0 1 3.314 0 .179.179 0 0 0 .226-.1c.354-.573.715-1.141 1.071-1.713.052-.083.09-.132.208-.092a10.187 10.187 0 0 1 3.565 2.053.176.176 0 0 1 .046.263c-.317.582-.621 1.17-.938 1.752a.2.2 0 0 0 .028.274 7.717 7.717 0 0 1 1.649 2.856c.034.106.075.149.193.152.679.016 1.358.045 2.037.063a.153.153 0 0 1 .176.146 10.1 10.1 0 0 1 0 4.145c-.022.109-.074.128-.17.131-.656.02-1.313.049-1.97.064a.255.255 0 0 0-.281.208 7.845 7.845 0 0 1-1.686 2.874.246.246 0 0 1-.338.072c-.6-.272-1.216-.525-1.825-.785-.03-.013-.059-.028-.1-.049" transform="translate(0 -21.566)" style="fill:#fff"/>
</svg>
