<svg width="23" height="16" viewBox="0 0 23 16" fill="none" xmlns="http://www.w3.org/2000/svg">
<path fill-rule="evenodd" clip-rule="evenodd" d="M1.6 0.8C1.159 0.8 0.8 1.159 0.8 1.6V14.4C0.8 14.841 1.159 15.2 1.6 15.2H20.8C21.241 15.2 21.6 14.841 21.6 14.4V1.6C21.6 1.159 21.241 0.8 20.8 0.8H1.6ZM20.8 16H1.6C0.718 16 0 15.282 0 14.4V1.6C0 0.718 0.718 0 1.6 0H20.8C21.682 0 22.4 0.718 22.4 1.6V14.4C22.4 15.282 21.682 16 20.8 16Z" fill="white"/>
<path fill-rule="evenodd" clip-rule="evenodd" d="M11.2 11.102C10.79 11.102 10.38 10.946 10.069 10.634L2.117 2.683C1.961 2.527 1.961 2.273 2.117 2.117C2.273 1.961 2.527 1.961 2.683 2.117L10.634 10.069C10.785 10.219 10.986 10.303 11.2 10.303C11.414 10.303 11.615 10.22 11.766 10.069L19.717 2.117C19.873 1.961 20.127 1.961 20.283 2.117C20.439 2.273 20.439 2.527 20.283 2.683L12.331 10.634C12.019 10.946 11.61 11.102 11.2 11.102" fill="white"/>
<path fill-rule="evenodd" clip-rule="evenodd" d="M20 14.0001C19.898 14.0001 19.795 13.9601 19.717 13.8831L14.117 8.2831C13.961 8.1271 13.961 7.8731 14.117 7.7171C14.273 7.5611 14.527 7.5611 14.683 7.7171L20.283 13.3171C20.439 13.4731 20.439 13.7271 20.283 13.8831C20.205 13.9611 20.103 14.0001 20 14.0001V14.0001ZM2.4 14.0001C2.298 14.0001 2.195 13.9601 2.117 13.8831C1.961 13.7271 1.961 13.4731 2.117 13.3171L7.717 7.7171C7.873 7.5611 8.127 7.5611 8.283 7.7171C8.439 7.8731 8.439 8.1271 8.283 8.2831L2.683 13.8831C2.605 13.9611 2.503 14.0001 2.4 14.0001Z" fill="white"/>
</svg>
