<svg width="18" height="20" viewBox="0 0 18 20" xmlns="http://www.w3.org/2000/svg">
    <g fill="#FFF" fill-rule="evenodd">
        <path d="M8.792.65C5.284.65 2.43 3.534 2.43 7.077c0 1.51.53 2.977 1.491 4.133l5.027 6.043 5.028-6.043a6.474 6.474 0 0 0 1.49-4.133c0-3.543-2.854-6.425-6.362-6.425h-.31zm.155 17.433a.32.32 0 0 1-.246-.116l-5.274-6.34a7.128 7.128 0 0 1-1.642-4.55C1.785 3.173 4.928 0 8.792 0h.31c3.865 0 7.008 3.174 7.008 7.076a7.128 7.128 0 0 1-1.642 4.551l-5.274 6.34a.32.32 0 0 1-.247.116z"/>
        <path d="M8.947 3.461c-1.973 0-3.58 1.622-3.58 3.615s1.607 3.614 3.58 3.614c1.974 0 3.58-1.621 3.58-3.614 0-1.993-1.606-3.615-3.58-3.615m0 7.88c-2.329 0-4.224-1.913-4.224-4.265 0-2.352 1.895-4.265 4.224-4.265 2.33 0 4.224 1.913 4.224 4.265 0 2.352-1.895 4.265-4.224 4.265M17.573 20H.323a.322.322 0 0 1-.277-.157.328.328 0 0 1-.009-.32l2.873-5.496a.322.322 0 0 1 .285-.173H5.68c.178 0 .322.145.322.325 0 .18-.144.326-.322.326H3.389L.857 19.349h16.181l-2.532-4.844h-2.233a.324.324 0 0 1-.323-.326c0-.18.145-.325.323-.325H14.7c.12 0 .23.066.285.173l2.873 5.496c.052.1.049.222-.01.32a.322.322 0 0 1-.275.157"/>
    </g>
</svg>
