<svg width="20" height="20" viewBox="0 0 20 20" fill="none" xmlns="http://www.w3.org/2000/svg">
<path fill-rule="evenodd" clip-rule="evenodd" d="M15.6 7.1999C15.38 7.1999 15.2 7.3799 15.2 7.5999V12.3999C15.2 12.6199 15.38 12.7999 15.6 12.7999H16.8C17.682 12.7999 18.4 12.0819 18.4 11.1999V8.7999C18.4 7.9179 17.682 7.1999 16.8 7.1999H15.6V7.1999ZM16.8 13.5999H15.6C14.938 13.5999 14.4 13.0619 14.4 12.3999V7.5999C14.4 6.9379 14.938 6.3999 15.6 6.3999H16.8C18.123 6.3999 19.2 7.4769 19.2 8.7999V11.1999C19.2 12.5229 18.123 13.5999 16.8 13.5999V13.5999ZM2.4 7.1999C1.518 7.1999 0.8 7.9179 0.8 8.7999V11.1999C0.8 12.0819 1.518 12.7999 2.4 12.7999H3.6C3.82 12.7999 4 12.6199 4 12.3999V7.5999C4 7.3799 3.82 7.1999 3.6 7.1999H2.4V7.1999ZM3.6 13.5999H2.4C1.077 13.5999 0 12.5229 0 11.1999V8.7999C0 7.4769 1.077 6.3999 2.4 6.3999H3.6C4.262 6.3999 4.8 6.9379 4.8 7.5999V12.3999C4.8 13.0619 4.262 13.5999 3.6 13.5999V13.5999Z" fill="white"/>
<path fill-rule="evenodd" clip-rule="evenodd" d="M15.6 7.2C15.38 7.2 15.2 7.02 15.2 6.8V5.6C15.2 2.953 13.047 0.8 10.4 0.8H8.79995C6.15295 0.8 3.99995 2.953 3.99995 5.6V6.8C3.99995 7.02 3.81995 7.2 3.59995 7.2C3.37995 7.2 3.19995 7.02 3.19995 6.8V5.6C3.19995 2.512 5.71195 0 8.79995 0H10.4C13.488 0 16 2.512 16 5.6V6.8C16 7.02 15.82 7.2 15.6 7.2Z" fill="white"/>
<mask id="mask0" mask-type="alpha" maskUnits="userSpaceOnUse" x="0" y="0" width="20" height="20">
<path d="M0 19.2H19.2V0H0V19.2Z" fill="white"/>
</mask>
<g mask="url(#mask0)">
<path fill-rule="evenodd" clip-rule="evenodd" d="M8.8 18.4H11.2V16.8H8.8V18.4ZM11.6 19.2H8.4C8.18 19.2 8 19.02 8 18.8V16.4C8 16.18 8.18 16 8.4 16H11.6C11.82 16 12 16.18 12 16.4V18.8C12 19.02 11.82 19.2 11.6 19.2Z" fill="white"/>
<path fill-rule="evenodd" clip-rule="evenodd" d="M11.6 18C11.398 18 11.225 17.848 11.202 17.644C11.178 17.424 11.337 17.227 11.556 17.202L13.419 16.998C14.434 16.886 15.2 16.031 15.2 15.01V13.2C15.2 12.98 15.38 12.8 15.6 12.8C15.82 12.8 16 12.98 16 13.2V15.01C16 16.44 14.928 17.636 13.506 17.793L11.644 17.998L11.6 18Z" fill="white"/>
</g>
</svg>
