<svg width="56" height="56" xmlns="http://www.w3.org/2000/svg" xmlns:xlink="http://www.w3.org/1999/xlink">
    <defs>
        <path id="a" d="M0 0h56v56H0z"/>
    </defs>
    <g fill="none" fill-rule="evenodd">
        <path d="M28 55.926c15.38 0 27.926-12.545 27.926-27.926C55.926 12.619 43.38.074 28 .074 12.619.074.075 12.62.075 28c0 15.381 12.544 27.926 27.926 27.926" fill="#FFF"/>
        <g>
            <mask id="b" fill="#fff">
                <use xlink:href="#a"/>
            </mask>
            <path d="M47.693 8.307A27.76 27.76 0 0 0 28.001.149 27.761 27.761 0 0 0 8.307 8.307 27.761 27.761 0 0 0 .15 28a27.762 27.762 0 0 0 8.157 19.694 27.761 27.761 0 0 0 19.694 8.157 27.76 27.76 0 0 0 19.692-8.157A27.762 27.762 0 0 0 55.851 28c0-7.69-3.117-14.654-8.158-19.693M28.001 0a27.911 27.911 0 0 1 19.798 8.201C52.866 13.268 56 20.268 56 28c0 7.732-3.134 14.732-8.2 19.8C42.731 52.865 35.731 56 28 56a27.914 27.914 0 0 1-19.798-8.2C3.135 42.731 0 35.731 0 28c0-7.732 3.135-14.732 8.202-19.799A27.912 27.912 0 0 1 28 0" fill="#CCC" mask="url(#b)"/>
        </g>
        <path fill="#000" d="m5.184 20.105 6.256-9.273-1.827-1.233-6.255 9.273zM7.568 21.713l6.256-9.273-1.826-1.232-6.256 9.274zM9.954 23.323l6.255-9.273-1.827-1.232-6.254 9.273z"/>
        <path d="M28 39.12c6.494 0 11.791-5.296 11.791-11.79 0-6.495-5.297-11.792-11.79-11.792-6.495 0-11.792 5.297-11.792 11.792 0 6.494 5.297 11.79 11.792 11.79" fill="#FFF"/>
        <path d="m44.269 38.917-1.825-1.234 3.056-4.531 1.826 1.232-3.057 4.533zm-3.198 4.74 2.75-4.077-1.826-1.232-2.75 4.078 1.826 1.232zM46.651 40.528l-1.825-1.234 3.058-4.534 1.826 1.232-3.059 4.536zm-3.195 4.738 2.75-4.078-1.827-1.232-2.75 4.078 1.827 1.232zM49.035 42.14l-1.825-1.234 3.06-4.536 1.825 1.232-3.06 4.538zm-3.194 4.736 2.75-4.079-1.827-1.232-2.75 4.079 1.827 1.232zM11.732 38.917l1.825-1.234-3.056-4.531-1.827 1.232 3.058 4.533zm3.197 4.74-2.75-4.077 1.827-1.232 2.75 4.078-1.827 1.232zM9.35 40.528l1.824-1.234-3.057-4.534-1.827 1.232 3.06 4.536zm3.195 4.738-2.75-4.078 1.827-1.232 2.75 4.078-1.827 1.232zM6.966 42.14l1.824-1.234-3.058-4.536-1.828 1.232 3.062 4.538zm3.194 4.736-2.751-4.079 1.827-1.232 2.75 4.079-1.826 1.232zM48.432 21.713l-6.255-9.273 1.827-1.232 6.254 9.274zM47.62 15.367l1.825-1.234L46.388 9.6l-1.827 1.232 3.06 4.535zm3.195 4.738-2.75-4.078 1.827-1.232 2.75 4.078-1.827 1.232zM42.851 18.585l1.825-1.234-3.058-4.533-1.827 1.232 3.06 4.535zm3.195 4.738-2.75-4.077 1.827-1.233 2.75 4.078-1.827 1.232z" fill="#000"/>
        <path d="M39.791 27.33c0-6.513-5.278-11.792-11.79-11.792a11.793 11.793 0 0 0-10.678 6.781c.206 2.92.685 6.11 3.8 7.301 2.864 1.097 5.177-.444 6.878-2.665 1.768-2.221 4.171-3.762 7.15-2.666 3.154 1.162 3.707 4.222 3.93 7.08.46-1.26.71-2.62.71-4.04" fill="#E32E3D"/>
        <path d="M35.15 24.29c-2.978-1.097-5.381.443-7.15 2.665-1.7 2.221-4.013 3.762-6.878 2.665-3.114-1.192-3.593-4.381-3.799-7.3a11.747 11.747 0 0 0-1.114 5.01c0 6.512 5.28 11.79 11.792 11.79 5.092 0 9.431-3.229 11.08-7.752-.223-2.857-.776-5.917-3.93-7.079" fill="#045185"/>
    </g>
</svg>
