<svg width="56" height="56" xmlns="http://www.w3.org/2000/svg" xmlns:xlink="http://www.w3.org/1999/xlink">
    <defs>
        <path id="a" d="M0 0h29.646v4.243H0z"/>
        <path id="c" d="M0 0h56v4.28H0z"/>
        <path id="e" d="M0 0h29.76v4.28H0z"/>
        <path id="g" d="M0 0h28v30.198H0z"/>
    </defs>
    <g fill="none" fill-rule="evenodd">
        <g transform="translate(13.177)">
            <mask id="b" fill="#fff">
                <use xlink:href="#a"/>
            </mask>
            <path d="M29.646 4.243H0A27.868 27.868 0 0 1 14.823 0a27.867 27.867 0 0 1 14.823 4.243" fill="#D6212A" mask="url(#b)"/>
        </g>
        <path d="M51.58 12.895H4.42a28.152 28.152 0 0 1 3.376-4.28h40.408a28.178 28.178 0 0 1 3.376 4.28M55.252 21.546H.749a27.825 27.825 0 0 1 1.383-4.279h51.735a27.784 27.784 0 0 1 1.385 4.28" fill="#D6212A"/>
        <g transform="translate(0 25.918)">
            <mask id="d" fill="#fff">
                <use xlink:href="#c"/>
            </mask>
            <path d="M55.914 4.28H.086A28.188 28.188 0 0 1 .076 0h55.847a28.6 28.6 0 0 1-.009 4.28" fill="#D6212A" mask="url(#d)"/>
        </g>
        <path d="M53.82 38.85H2.18a27.748 27.748 0 0 1-1.403-4.28h54.446a27.832 27.832 0 0 1-1.403 4.28M48.09 47.5H7.91a28.076 28.076 0 0 1-3.413-4.28h47.006a28.078 28.078 0 0 1-3.413 4.28" fill="#D6212A"/>
        <g transform="translate(13.12 51.72)">
            <mask id="f" fill="#fff">
                <use xlink:href="#e"/>
            </mask>
            <path d="M0 0h29.76a27.873 27.873 0 0 1-14.88 4.28C9.412 4.28 4.31 2.71 0 0" fill="#D6212A" mask="url(#f)"/>
        </g>
        <g>
            <mask id="h" fill="#fff">
                <use xlink:href="#g"/>
            </mask>
            <path d="M28 0v30.198H.086A28.188 28.188 0 0 1 0 28C0 12.536 12.536 0 28 0" fill="#233F88" mask="url(#h)"/>
        </g>
        <path d="m.345 23.601 1.244-.003-1.067.772.41 1.252-.778-.567c.051-.488.115-.973.191-1.454M7.072 10.377l.405 1.254 1.316-.004-1.066.773.409 1.252-1.064-.777-1.064.777.41-1.252-1.067-.773 1.317.004zM3.733 14.023l.18.556 1.317-.002-1.067.772.41 1.251-1.064-.776-1.064.776.068-.207c.37-.812.777-1.603 1.22-2.37M7.072 16.363l.405 1.253 1.316-.003-1.066.772.409 1.251-1.064-.775-1.064.775.41-1.25-1.067-.773 1.317.003zM3.508 19.311l.405 1.253 1.317-.002-1.067.772.41 1.25-1.065-.775-1.063.776.41-1.251-1.068-.772 1.317.002zM7.072 22.348l.405 1.253 1.316-.003-1.066.772.409 1.252-1.064-.776-1.064.776.41-1.252-1.067-.772 1.317.003zM3.508 25.296l.405 1.253 1.317-.002-1.067.772.41 1.251-1.065-.776-1.063.776.41-1.251-1.068-.772 1.317.002zM14.182 4.392l.404 1.253 1.317-.003-1.067.773.41 1.251-1.064-.776-1.064.776.41-1.251-1.067-.773 1.316.003zM10.618 7.341l.405 1.253 1.317-.003-1.067.772.41 1.252-1.065-.776-1.063.776.409-1.252-1.067-.772 1.317.003zM14.182 10.377l.404 1.254 1.317-.004-1.067.773.41 1.252-1.064-.777-1.064.777.41-1.252-1.067-.773 1.316.004zM10.618 13.326l.405 1.253 1.317-.002-1.067.772.41 1.251-1.065-.776-1.063.776.409-1.251-1.067-.772 1.317.002zM14.182 16.363l.404 1.253 1.317-.003-1.067.772.41 1.251-1.064-.775-1.064.775.41-1.25-1.067-.773 1.316.003zM10.618 19.311l.405 1.253 1.317-.002-1.067.772.41 1.25-1.065-.775-1.063.776.409-1.251-1.067-.772 1.317.002zM14.182 22.348l.404 1.253 1.317-.003-1.067.772.41 1.252-1.064-.776-1.064.776.41-1.252-1.067-.772 1.316.003zM10.618 25.296l.405 1.253 1.317-.002-1.067.772.41 1.251-1.065-.776-1.063.776.409-1.251-1.067-.772 1.317.002zM17.898 1.88l.235.729 1.317-.003-1.067.772.409 1.251-1.064-.776-1.064.776.41-1.25-.994-.72a5.02 5.02 0 0 1 .113-.052l1.13.002.186-.575c.13-.053.259-.104.389-.154M21.292 4.392l.404 1.253 1.317-.003-1.066.773.408 1.251-1.063-.776-1.064.776.41-1.251-1.067-.773 1.316.003zM17.728 7.341l.405 1.253 1.317-.003-1.067.772.41 1.252-1.065-.776-1.064.776.41-1.252-1.067-.772 1.317.003zM21.292 10.377l.404 1.254 1.317-.004-1.066.773.408 1.252-1.063-.777-1.064.777.41-1.252-1.067-.773 1.316.004zM17.728 13.326l.405 1.253 1.317-.002-1.067.772.41 1.251-1.065-.776-1.064.776.41-1.251-1.067-.772 1.317.002zM21.292 16.363l.404 1.253 1.317-.003-1.066.772.408 1.251-1.063-.775-1.064.775.41-1.25-1.067-.773 1.316.003zM17.728 19.311l.405 1.253 1.317-.002-1.067.772.41 1.25-1.065-.775-1.064.776.41-1.251-1.067-.772 1.317.002zM21.292 22.348l.404 1.253 1.317-.003-1.066.772.408 1.252-1.063-.776-1.064.776.41-1.252-1.067-.772 1.316.003zM17.728 25.296l.405 1.253 1.317-.002-1.067.772.41 1.251-1.065-.776-1.064.776.41-1.251-1.067-.772 1.317.002zM24.838 1.355l.404 1.254 1.317-.003-1.067.772.41 1.251-1.064-.776-1.063.776.408-1.25-1.066-.773 1.317.003zM24.838 7.341l.404 1.253 1.317-.003-1.067.772.41 1.252-1.064-.776-1.063.776.408-1.252-1.066-.772 1.317.003zM24.838 13.326l.404 1.253 1.317-.002-1.067.772.41 1.251-1.064-.776-1.063.776.408-1.251-1.066-.772 1.317.002zM24.838 19.311l.404 1.253 1.317-.002-1.067.772.41 1.25-1.064-.775-1.063.776.408-1.251-1.066-.772 1.317.002zM24.838 25.296l.404 1.253 1.317-.002-1.067.772.41 1.251-1.064-.776-1.063.776.408-1.251-1.066-.772 1.317.002z" fill="#FFF"/>
    </g>
</svg>
