<svg xmlns="http://www.w3.org/2000/svg" width="20" height="14" viewBox="0 0 20 14">
    <path data-name="사각형 2956" transform="translate(0 .048)" style="fill:none" d="M0 0h20v13.952H0z"/>
    <g data-name="그룹 3483">
        <path data-name="패스 4395" d="M12.667 15.331v-.2a2.717 2.717 0 0 0-.014-.333.159.159 0 0 1 .012-.063v-.456c0-.024-.015-.044-.015-.066 0-.145.01-.287.014-.432v-.491c0-.141-.02-.282-.022-.425a.366.366 0 0 1 .017-.084v-.3l-.015-.254a.628.628 0 0 1 .024-.148v-.66a.871.871 0 0 1 0-.094c0-.1.01-.2.019-.3v-1.02a6.141 6.141 0 0 0-.015-.749l.02.164a.9.9 0 0 1 0-.252c0-.031-.01-.063-.012-.094v-.085a.839.839 0 0 0 0-.092V7.288a.1.1 0 0 1 0-.031 4.049 4.049 0 0 1 0-.43c0-.021-.014-.038-.012-.059a1.089 1.089 0 0 1 .015-.223v-2.72c0-.226-.015-.454-.015-.683a.279.279 0 0 1 .014-.054c0-.033-.012-.066-.012-.1v-.477a.553.553 0 0 1 0-.075c-.01-.136 0-.273 0-.411v-.432a.128.128 0 0 1 .01-.05v-.108a.087.087 0 0 1 0-.03l-.01-.566V0L.391 8.068a.884.884 0 0 0 0 1.468l12.288 8.075v-.6a.3.3 0 0 1 .012-.056V16.7c0-.132-.012-.263 0-.4v-.623a.426.426 0 0 1 .012-.124c.012-.04 0-.047 0-.071z" transform="rotate(-90 7.265 6.071)" style="stroke:#ddd;fill:#fff"/>
        <path data-name="패스 4397" d="M.433 1.488 2.712 0v17.258L0 15.445z" transform="rotate(-90 2.05 .662)" style="fill:#fff"/>
    </g>
</svg>
