<svg xmlns="http://www.w3.org/2000/svg" width="16" height="16" viewBox="0 0 16 16">
    <path data-name="패스 11" d="M15.987 7.641a.387.387 0 0 0-.008-.145l-.005-.107a.347.347 0 0 0-.014-.144v-.072a.183.183 0 0 0-.014-.108l-.005-.054a.162.162 0 0 0-.016-.107l-.007-.054a.1.1 0 0 0-.014-.085l-.005-.042a.071.071 0 0 0-.011-.067c-.018-.106-.033-.213-.056-.317A7.964 7.964 0 0 0 13.8 2.5a6.589 6.589 0 0 0-.927-.83 2.519 2.519 0 0 0-.378-.277.258.258 0 0 0-.094-.063.071.071 0 0 0-.054-.035 7.047 7.047 0 0 0-1.485-.759 1 1 0 0 0-.259-.1l-.1-.03a.19.19 0 0 0-.123-.033.532.532 0 0 0-.226-.073v.024l.091.021.1.04A.163.163 0 0 0 10.4.46a.163.163 0 0 1-.053-.076l-.1-.04a.074.074 0 0 1-.02.041.074.074 0 0 0 .02-.041l-.091-.02V.3a5.345 5.345 0 0 0-.817-.183.065.065 0 0 0-.065-.011L9.231.1a.088.088 0 0 0-.083-.013L9.106.081A.137.137 0 0 0 9 .067L8.95.061a.23.23 0 0 0-.127-.016L8.753.04a.248.248 0 0 0-.127-.013L8.5.02a.522.522 0 0 0-.18-.011 5.54 5.54 0 0 0-.643 0A.513.513 0 0 0 7.5.02l-.111.005a.277.277 0 0 0-.144.016H7.21a.33.33 0 0 0-.163.019l-.053.006A.11.11 0 0 0 6.9.08l.017.014c.029.045.061.053.1.023-.039.03-.071.022-.1-.023L6.9.08l-.05.008A.091.091 0 0 0 6.766.1l.064.009a.249.249 0 0 0 .01.052.249.249 0 0 1-.01-.052L6.766.1l-.043.006a.065.065 0 0 0-.065.011c-.03 0-.06.005-.089.011a7.883 7.883 0 0 0-2.555.939A7.972 7.972 0 0 0 .785 4.548a7.529 7.529 0 0 0-.674 2.14.027.027 0 0 0 0 .035L.1 6.782a.072.072 0 0 0-.011.068l-.01.072a2.587 2.587 0 0 0-.052.485L.02 7.5a.836.836 0 0 0-.013.216 5.512 5.512 0 0 0 0 .573.662.662 0 0 0 .013.2l.006.125a.336.336 0 0 0 .014.144l.005.072a.176.176 0 0 0 .014.108l.006.054a.114.114 0 0 0 .012.09l.01.072A.05.05 0 0 0 .1 9.2l.011.073a.027.027 0 0 0 0 .035 5.351 5.351 0 0 0 .162.756 2.718 2.718 0 0 0 .14.45.124.124 0 0 0 .021.072.031.031 0 0 0 .014.036c.008.029.014.058.024.086a7.99 7.99 0 0 0 1.754 2.821 6.533 6.533 0 0 0 .875.781.17.17 0 0 0 .08.064.008.008 0 0 0 .01.008.051.051 0 0 0 .043.032l.029.022a.3.3 0 0 0 .116.083 1.031 1.031 0 0 0 .19.132.052.052 0 0 0 .043.029c.022.016.043.032.065.046a7.763 7.763 0 0 0 1.593.791 6.917 6.917 0 0 0 1.384.362.07.07 0 0 0 .067.011l.042.005a.1.1 0 0 0 .085.014l.054.008a.168.168 0 0 0 .108.016l.054.005.015-.006-.015.006a.181.181 0 0 0 .108.014h.071a.342.342 0 0 0 .144.014l.107.005a.386.386 0 0 0 .145.008 5.014 5.014 0 0 0 .7 0 .5.5 0 0 0 .163-.01h.107a3.026 3.026 0 0 0 .5-.056.862.862 0 0 0 .107-.005 8.1 8.1 0 0 0 1.407-.355 7.962 7.962 0 0 0 4.677-4.291 7.174 7.174 0 0 0 .584-1.935.055.055 0 0 0 .008-.054l.008-.053a.08.08 0 0 0 .012-.072l.007-.054a4.564 4.564 0 0 0 .069-.755 5.077 5.077 0 0 0 0-.7M10.138.593l-.013-.005.013.006M15 8.054l-.039.7a.06.06 0 0 0 0 .054l-.011.091a.088.088 0 0 0-.009.072l-.008.054.006.01-.006-.01a.079.079 0 0 0-.012.072l-.008.054a.085.085 0 0 0-.015.072v.036a.093.093 0 0 0-.015.072v.036a.066.066 0 0 0-.014.054 7.039 7.039 0 0 1-3.719 4.833l-.079.043a.168.168 0 0 0-.085.041l-.04.02a.126.126 0 0 0-.082.038l-.063.025a.037.037 0 0 0-.036.018l-.054.022a.188.188 0 0 0-.1.043.053.053 0 0 0-.044.017.043.043 0 0 0-.047.018l-.079.027-.539.179-.036.007a.029.029 0 0 0-.036.012l-.036.009a.027.027 0 0 0-.036.01l-.036.01a.029.029 0 0 0-.036.008l-.036.01a.053.053 0 0 0-.051.01A7.453 7.453 0 0 1 7.976 15c-.251 0-.5-.02-.751-.038a.029.029 0 0 0-.036 0l-.089-.019a.09.09 0 0 0-.072-.009l-.055-.008a.08.08 0 0 0-.071-.012.072.072 0 0 0-.054-.008.085.085 0 0 0-.071-.015h-.036a.084.084 0 0 1-.031.015.084.084 0 0 0 .031-.015.092.092 0 0 0-.072-.015h-.036a2.536 2.536 0 0 0-.342-.078l-.036-.009a.027.027 0 0 0-.036-.01l-.036-.009a.029.029 0 0 0-.036-.011l-.036-.008-.011-.001.008-.007a.032.032 0 0 0-.036-.013l-.035-.007A.033.033 0 0 0 6 14.708l-.166-.048a1.634 1.634 0 0 0-.266-.1 8.045 8.045 0 0 1-1.463-.746.1.1 0 0 1-.022 0 .1.1 0 0 0 .022 0l-.35-.252a7.833 7.833 0 0 1-.982-.918A6.989 6.989 0 0 1 1.187 6.4c0-.02.006-.041.009-.062a.047.047 0 0 0 .013-.051l.008-.036A1.49 1.49 0 0 0 1.29 6a7.057 7.057 0 0 1 4.286-4.562c.017-.006.033-.015.049-.022a1.725 1.725 0 0 0 .266-.092l.023-.008a2.687 2.687 0 0 0 .34-.1l.036-.009a.048.048 0 0 0 .051-.007c.313-.061.626-.124.944-.156a7.047 7.047 0 0 1 2.2.123c.032.007.064.011.1.016a.918.918 0 0 0 .2.049l.036.008c.008-.009.014-.012.019-.012s-.011 0-.019.012a.031.031 0 0 0 .036.012l.036.007a.034.034 0 0 0 .036.013 7.059 7.059 0 0 1 4.762 4.666l.023.068a.072.072 0 0 1 .034.034.072.072 0 0 0-.04-.04.247.247 0 0 0 .034.108l.008.035a.03.03 0 0 0 .012.036l.009.036a.027.027 0 0 0 .01.036l.01.036.08.362v.034a.06.06 0 0 0 .013.054v.036a.086.086 0 0 0 .015.072l.008.054a.08.08 0 0 0 .012.071l.008.054a.089.089 0 0 0 .009.072l.011.091a.059.059 0 0 0 0 .053l.04.7a.259.259 0 0 0 0 .11m.908 1.005a.069.069 0 0 1-.028 0 .069.069 0 0 0 .028 0 .045.045 0 0 0-.016-.049.045.045 0 0 1 .016.049" style="fill:#acacac"/>
    <path data-name="패스 12" d="M209.8 139.715a1.349 1.349 0 0 0-.306-.287.562.562 0 0 0-.141-.108 3.245 3.245 0 0 0-2.392-.4.036.036 0 0 0-.037.01h-.035a1.219 1.219 0 0 0-.334.1.335.335 0 0 0-.134.047.905.905 0 0 0-.251.115.977.977 0 0 0-.253.147.074.074 0 0 0-.054.036.514.514 0 0 0-.131.091 2.393 2.393 0 0 0-.59.646.182.182 0 0 0-.056.088.415.415 0 0 0-.082.145.436.436 0 0 0-.078.161v.006a1.134 1.134 0 0 0-.123.334v.007a.553.553 0 0 0-.055.191l-.007.036a.235.235 0 0 0 .027.242c.045.07.12.072.19.08.268.027.537.05.8.079.222.024.3-.034.358-.251a1.52 1.52 0 0 1 1.509-1.238 1.429 1.429 0 0 1 1.318 2.047 3.054 3.054 0 0 1-.652.849c-.3.3-.614.586-.918.883a1.525 1.525 0 0 0-.422.737 4.734 4.734 0 0 0-.066 1.249.269.269 0 0 0 .284.257h.728a.284.284 0 0 0 .291-.289v-.251a2.077 2.077 0 0 1 .145-.92l.086-.136.188-.216a.012.012 0 0 0 .011-.01l.224-.219.012-.012a3.38 3.38 0 0 0 .428-.423.421.421 0 0 0 .106-.109 1.872 1.872 0 0 0 .221-.23l.015-.016a.18.18 0 0 0 .072-.075.052.052 0 0 0 .035-.036.046.046 0 0 0 .031-.032 1.21 1.21 0 0 0 .258-.344.029.029 0 0 0 .018-.03 1.278 1.278 0 0 0 .165-.317.45.45 0 0 0 .062-.157 2.757 2.757 0 0 0 .031-1.563 2.094 2.094 0 0 0-.494-.911m.432 2.5c-.011.019-.011.046-.021.066a.088.088 0 0 0-.069.026.088.088 0 0 1 .069-.026c.01-.02.009-.047.021-.066a.046.046 0 0 1 .016-.017.046.046 0 0 0-.016.017" transform="translate(-199.548 -135.341)" style="fill:#acacac"/>
    <path data-name="패스 13" d="M288 458.368a.719.719 0 1 0 .724.721.721.721 0 0 0-.724-.721" transform="translate(-280.043 -446.81)" style="fill:#acacac"/>
</svg>
