<svg xmlns="http://www.w3.org/2000/svg" width="76" height="76" viewBox="0 0 76 76">
    <defs>
        <clipPath id="jnh2bf1kpa">
            <path data-name="사각형 122" style="fill:none" d="M0 0h76v76H0z"/>
        </clipPath>
    </defs>
    <g data-name="그룹 28">
        <g data-name="그룹 27" style="clip-path:url(#jnh2bf1kpa)">
            <path data-name="패스 40" d="M75.78 34.211a40.075 40.075 0 0 0-1.2-6.528A41.832 41.832 0 0 0 72 21.047a38.252 38.252 0 0 0-9.1-11.734 37.083 37.083 0 0 0-10.6-6.524A34.525 34.525 0 0 0 43.767.416a38.364 38.364 0 0 0-21.088 2.822 37.2 37.2 0 0 0-12.535 8.972 38.344 38.344 0 0 0-7.009 10.712A39.755 39.755 0 0 0 .121 35.186 34 34 0 0 0 .4 43.115a36.982 36.982 0 0 0 1.72 7.2A22.014 22.014 0 0 1 3.6 57.2a28.377 28.377 0 0 1-.439 5.152C2.508 66.3 1.712 70.217.993 74.148c-.143.781-.015.955.766.812 1.213-.222 2.419-.484 3.636-.683 2.041-.334 4.066-.762 6.1-1.118a31.543 31.543 0 0 1 6.49-.787 20.8 20.8 0 0 1 3.607.278c2.54.525 4.912 1.593 7.435 2.171a46.046 46.046 0 0 0 7.753 1.139 36.922 36.922 0 0 0 11.436-1.412A35.162 35.162 0 0 0 58.689 69.8a38.279 38.279 0 0 0 11.8-12.177 37.679 37.679 0 0 0 5.291-23.412" style="fill:#d34e81"/>
        </g>
    </g>
    <path data-name="패스 41" d="M8.133 0 0 2.411v3.563l4.822-1.367v20.729h4.823V0z" transform="translate(18.757 33.748)" style="fill:#fff"/>
    <path data-name="패스 43" d="M7.865-9.2h1.7v-2.9H11.3v6.15a3.1 3.1 0 0 1-.245 1.394.818.818 0 0 1-.778.469h-.238q-.476 0-.476-.448v-3.25h-1.7zM6.323-4.66H8.1v.5a2.005 2.005 0 0 0 .252.988 3.179 3.179 0 0 0 .7.848 5.276 5.276 0 0 0 1.079.714 11.257 11.257 0 0 0 1.387.588.428.428 0 0 1 .322.406.98.98 0 0 1-.238.7.663.663 0 0 1-.462.252.1.1 0 0 1-.04-.002.1.1 0 0 0-.042-.007q-.63-.21-1.226-.455a9.411 9.411 0 0 1-1.085-.525 7.867 7.867 0 0 1-.9-.6 3.348 3.348 0 0 1-.63-.63 3.194 3.194 0 0 1-.63.623 7.812 7.812 0 0 1-.883.581 11.309 11.309 0 0 1-1.065.532Q4.068.1 3.452.313a.452.452 0 0 1-.168.028A.648.648 0 0 1 2.828.1.972.972 0 0 1 2.6-.6q0-.35.406-.448a10.68 10.68 0 0 0 1.366-.609 5.73 5.73 0 0 0 1.044-.707 2.913 2.913 0 0 0 .672-.827 2.029 2.029 0 0 0 .238-.967zm-4.847-6.416h2.27v-1.149h1.737v1.149H7.6q.336 0 .336.462 0 .953-.63.953H5.511v.154a2.264 2.264 0 0 0 .637 1.436 6.181 6.181 0 0 0 1.814 1.38.594.594 0 0 1 .182.175.5.5 0 0 1 .084.2.8.8 0 0 1-.084.364 1.122 1.122 0 0 1-.21.294 1.084 1.084 0 0 1-.259.2.5.5 0 0 1-.217.07.434.434 0 0 1-.238-.084 9.223 9.223 0 0 1-1.443-.813 4.98 4.98 0 0 1-1.093-1.023A5.389 5.389 0 0 1 3.6-6.18a9.284 9.284 0 0 1-1.45.918.515.515 0 0 1-.252.07.468.468 0 0 1-.217-.077 1 1 0 0 1-.245-.2 1.222 1.222 0 0 1-.21-.28.639.639 0 0 1-.084-.308.562.562 0 0 1 .322-.476 5.407 5.407 0 0 0 1.7-1.478 2.648 2.648 0 0 0 .567-1.492v-.154H1.476zM27.52-1.284q0 1.751-1.037 1.751h-.238a.4.4 0 0 1-.462-.448V-12.1h1.737v3.853h1.6q.322 0 .322.476 0 1.009-.63 1.009H27.52zm-3.53-8.994a6.662 6.662 0 0 1-1.43 4.259 9.225 9.225 0 0 1-3.867 2.8q-.462.21-.8-.406-.308-.6.154-.883a6.833 6.833 0 0 0 1.639-.925 8.746 8.746 0 0 0 1.345-1.289 5.086 5.086 0 0 0 1.191-3.334h-4.117v-1.415h5.155q.728 0 .728.7zM40.24-7.35q0 1.75-1.04 1.75h-.238q-.476 0-.476-.448V-12.1h1.754zm-6.43 2.3v1.443h4.679v-1.445h1.751V-2.1q0 2.424-1.261 2.424h-5.435q-1.485 0-1.485-1.415v-3.961zm4.315 3.99q.364 0 .364-.757v-.448H33.81v.757a.4.4 0 0 0 .462.448zm-4.469-10.8a3.97 3.97 0 0 1 1.4.231 2.968 2.968 0 0 1 1.037.637 2.693 2.693 0 0 1 .637.953 3.119 3.119 0 0 1 .217 1.163 3.119 3.119 0 0 1-.217 1.163 2.693 2.693 0 0 1-.637.953 3.052 3.052 0 0 1-1.037.644 3.865 3.865 0 0 1-1.4.238 3.782 3.782 0 0 1-1.373-.238 3.052 3.052 0 0 1-1.037-.644 2.767 2.767 0 0 1-.665-.953 2.953 2.953 0 0 1-.231-1.163 2.953 2.953 0 0 1 .231-1.163 2.767 2.767 0 0 1 .665-.953 2.968 2.968 0 0 1 1.037-.637 3.885 3.885 0 0 1 1.373-.232zm-.014 4.567a1.583 1.583 0 0 0 .63-.126 1.639 1.639 0 0 0 .518-.35 1.77 1.77 0 0 0 .336-.518 1.583 1.583 0 0 0 .126-.63 1.534 1.534 0 0 0-.126-.623 1.8 1.8 0 0 0-.336-.511 1.77 1.77 0 0 0-.518-.336 1.583 1.583 0 0 0-.63-.126 1.534 1.534 0 0 0-.623.126 1.611 1.611 0 0 0-.5.336 1.684 1.684 0 0 0-.329.511 1.611 1.611 0 0 0-.119.623 1.664 1.664 0 0 0 .119.63 1.662 1.662 0 0 0 .329.518 1.5 1.5 0 0 0 .5.35 1.534 1.534 0 0 0 .623.125z" transform="translate(16.885 27.921)" style="fill:#fff"/>
    <path data-name="패스 42" d="M5.489-9.924H.6v1.647h3.031A7.421 7.421 0 0 1 .9-3.242l.016 2.056C3.13-2.623 5.489-5.562 5.489-8.579zm3.6-.9v3.584H7.993v-3.58H6.346V.013h1.673l-.026-5.575h1.094V.013h1.608V-10.82zM13.475.25H21.7V-.91h-6.617v-.329H21.7v-2.6h-8.225v1.015h6.484v.424h-6.484zm1.239-11.32c-1.212 0-1.871.527-1.871 1.489v.5c0 1.12.883 1.529 1.845 1.529h1.871a1.565 1.565 0 0 0 1.753-1.555v-.435c0-.962-.54-1.529-1.74-1.529zm7.011 6.984v-6.866h-1.7v5.416h-2.386v1.16h2.385v.29zM12.012-7.13v1.291h2.2v1.529h1.7v-1.528h3.505V-7.13zm4.665-2.1c0 .369-.237.514-.619.514h-.949c-.409 0-.619-.145-.619-.514v-.17c0-.369.237-.514.646-.514h.909c.382 0 .633.145.633.514zM1.72 2.293V6.8h7.92V2.293zM7.874 5.35H3.657V3.729h4.217zm2.939 2.715H.6v1.581h4.23V13.3h1.74V9.646h4.243zM12.566 5.3v3.331H20.8V7.353h-6.442v-.844H20.8V2.965h-8.234v1.489h6.444V5.3zm9.066 5.324h-2.583V9.211h-1.476v1.41h-1.515v-1.41h-1.476v1.41h-2.847v1.5h9.9z" transform="translate(32.728 45.787)" style="fill:#fff"/>
</svg>
